<svg width="359" height="147" viewBox="0 0 359 147" fill="none" xmlns="http://www.w3.org/2000/svg">
<path d="M172.688 41.4375L179.938 39C181.104 41.0834 182.792 42.7917 185 44.125C187.208 45.4167 189.646 46.0625 192.313 46.0625C195.063 46.0625 197.271 45.3959 198.938 44.0625C200.604 42.7292 201.438 41 201.438 38.875C201.438 36.625 200.542 34.875 198.75 33.625C197 32.375 194.417 31.1667 191 30C186.125 28.375 182.833 27.0834 181.125 26.125C176.667 23.5834 174.438 19.8959 174.438 15.0625C174.438 10.9792 176.042 7.68754 179.25 5.18754C182.458 2.68754 186.646 1.43754 191.813 1.43754C196.063 1.43754 199.688 2.43754 202.688 4.43754C205.729 6.39587 207.938 8.91671 209.313 12L202.375 14.3125C199.708 10.4375 196.167 8.50004 191.75 8.50004C189.042 8.50004 186.896 9.10421 185.313 10.3125C183.729 11.5209 182.938 13.1042 182.938 15.0625C182.938 15.6459 183 16.2084 183.125 16.75C183.25 17.25 183.5 17.7292 183.875 18.1875C184.25 18.6459 184.583 19.0417 184.875 19.375C185.167 19.7084 185.646 20.0625 186.313 20.4375C186.979 20.8125 187.5 21.1042 187.875 21.3125C188.292 21.5209 188.958 21.7917 189.875 22.125C190.792 22.4584 191.438 22.6875 191.813 22.8125C192.229 22.9375 192.979 23.1875 194.063 23.5625C195.146 23.8959 195.875 24.125 196.25 24.25C198.167 24.875 199.854 25.5417 201.313 26.25C202.771 26.9584 204.188 27.875 205.563 29C206.979 30.0834 208.063 31.4375 208.813 33.0625C209.563 34.6875 209.938 36.5209 209.938 38.5625C209.938 43.1875 208.271 46.7709 204.938 49.3125C201.646 51.8542 197.375 53.125 192.125 53.125C187.583 53.125 183.604 52.0834 180.188 50C176.771 47.875 174.271 45.0209 172.688 41.4375Z" fill="white"/>
<path d="M224.375 33.9375C224.375 37.7292 225.083 40.75 226.5 43C227.958 45.25 229.979 46.375 232.563 46.375C235.021 46.375 237.021 45.2917 238.563 43.125C240.104 40.9167 240.875 37.8542 240.875 33.9375C240.875 30.1459 240.125 27.1459 238.625 24.9375C237.167 22.6875 235.146 21.5625 232.563 21.5625C230.021 21.5625 228.021 22.7084 226.563 25C225.104 27.2917 224.375 30.2709 224.375 33.9375ZM216.563 66.75V15.9375H224.188V20.625C226.396 16.75 229.563 14.8125 233.688 14.8125C238.063 14.8125 241.688 16.5417 244.563 20C247.479 23.4167 248.938 28.0625 248.938 33.9375C248.938 37.2292 248.479 40.1667 247.563 42.75C246.646 45.2917 245.417 47.2917 243.875 48.75C242.375 50.2084 240.75 51.2917 239 52C237.292 52.75 235.521 53.125 233.688 53.125C231.354 53.125 229.396 52.6042 227.813 51.5625C226.271 50.4792 225.146 49.2292 224.438 47.8125V66.75H216.563Z" fill="white"/>
<path d="M261.375 41.875C261.375 43.2084 261.896 44.3334 262.938 45.25C264.021 46.125 265.438 46.5625 267.188 46.5625C269.688 46.5625 271.813 45.7292 273.563 44.0625C275.354 42.3959 276.25 40.2084 276.25 37.5V34.1875C274.333 34.6459 272.021 35.0834 269.313 35.5C264.021 36.3334 261.375 38.4584 261.375 41.875ZM253.375 42.5625C253.375 35.7709 258.417 31.625 268.5 30.125C272.167 29.5834 274.75 29.0834 276.25 28.625V26.6875C276.25 24.9375 275.625 23.5625 274.375 22.5625C273.125 21.5625 271.458 21.0625 269.375 21.0625C265.417 21.0625 262 22.6875 259.125 25.9375L254.313 21.8125C256.188 19.6042 258.417 17.8959 261 16.6875C263.625 15.4375 266.375 14.8125 269.25 14.8125C274.625 14.8125 278.458 16.125 280.75 18.75C283.042 21.3334 284.188 24.9584 284.188 29.625V52H276.5V47.5C275.75 49.0417 274.438 50.375 272.563 51.5C270.729 52.5834 268.563 53.125 266.063 53.125C262.104 53.125 259 52.1459 256.75 50.1875C254.5 48.2292 253.375 45.6875 253.375 42.5625Z" fill="white"/>
<path d="M290.25 34C290.25 28.2084 291.792 23.5625 294.875 20.0625C298 16.5625 302.021 14.8125 306.938 14.8125C310.521 14.8125 313.542 15.8959 316 18.0625C318.458 20.2292 320 22.7084 320.625 25.5L313.875 27.375C313.375 25.7917 312.521 24.4375 311.313 23.3125C310.104 22.1459 308.667 21.5625 307 21.5625C304.292 21.5625 302.167 22.75 300.625 25.125C299.125 27.5 298.375 30.4584 298.375 34C298.375 37.9167 299.188 40.9584 300.813 43.125C302.438 45.2917 304.5 46.375 307 46.375C308.833 46.375 310.438 45.75 311.813 44.5C313.229 43.2084 314.208 41.75 314.75 40.125L321.5 42.0625C320.708 44.9792 318.979 47.5625 316.313 49.8125C313.646 52.0209 310.521 53.125 306.938 53.125C302.021 53.125 298 51.3959 294.875 47.9375C291.792 44.4375 290.25 39.7917 290.25 34Z" fill="white"/>
<path d="M324.938 33.8125C324.938 28.0209 326.521 23.4167 329.688 20C332.896 16.5417 336.917 14.8125 341.75 14.8125C346.5 14.8125 350.417 16.5417 353.5 20C356.583 23.4584 358.125 27.9584 358.125 33.5C358.125 34.5834 358.063 35.6459 357.938 36.6875H332.938C332.938 39.4375 333.75 41.8125 335.375 43.8125C337.042 45.7709 339.313 46.75 342.188 46.75C344.188 46.75 345.938 46.2709 347.438 45.3125C348.979 44.3125 350.146 43.0417 350.938 41.5L357.563 43.75C356.396 46.4167 354.5 48.6459 351.875 50.4375C349.25 52.2292 345.979 53.125 342.063 53.125C337.021 53.125 332.896 51.375 329.688 47.875C326.521 44.375 324.938 39.6875 324.938 33.8125ZM333.063 31.125H350.063C350.063 28.375 349.333 26.0417 347.875 24.125C346.417 22.1667 344.375 21.1875 341.75 21.1875C339.125 21.1875 337.021 22.1875 335.438 24.1875C333.896 26.1459 333.104 28.4584 333.063 31.125Z" fill="white"/>
<path d="M171.688 89.625V82.5625H208.438V89.625H194.188V132H185.938V89.625H171.688Z" fill="white"/>
<path d="M210.438 132V95.9375H218.063V99.8125C218.854 98.4792 219.979 97.3125 221.438 96.3125C222.938 95.3125 224.708 94.8125 226.75 94.8125C228.667 94.8125 230.229 95.0834 231.438 95.625V102.813C229.854 102.313 228.292 102.063 226.75 102.063C224.042 102.063 221.958 103.125 220.5 105.25C219.083 107.333 218.375 110.125 218.375 113.625V132H210.438Z" fill="white"/>
<path d="M236 90.5625V81.875H244.5V90.5625H236ZM236.375 132V95.9375H244.188V132H236.375Z" fill="white"/>
<path d="M261.75 113.938C261.75 117.729 262.458 120.75 263.875 123C265.333 125.25 267.354 126.375 269.938 126.375C272.396 126.375 274.396 125.292 275.938 123.125C277.479 120.917 278.25 117.854 278.25 113.938C278.25 110.146 277.5 107.146 276 104.938C274.542 102.688 272.521 101.563 269.938 101.563C267.396 101.563 265.396 102.708 263.938 105C262.479 107.292 261.75 110.271 261.75 113.938ZM253.938 146.75V95.9375H261.563V100.625C263.771 96.75 266.938 94.8125 271.063 94.8125C275.438 94.8125 279.063 96.5417 281.938 100C284.854 103.417 286.313 108.063 286.313 113.938C286.313 117.229 285.854 120.167 284.938 122.75C284.021 125.292 282.792 127.292 281.25 128.75C279.75 130.208 278.125 131.292 276.375 132C274.667 132.75 272.896 133.125 271.063 133.125C268.729 133.125 266.771 132.604 265.188 131.563C263.646 130.479 262.521 129.229 261.813 127.813V146.75H253.938Z" fill="white"/>
<path d="M18.2478 111.116C19.5378 109.826 19.5378 107.734 18.2478 106.444C16.9577 105.154 14.8659 105.154 13.5756 106.444L0.967529 119.052C-0.32251 120.342 -0.32251 122.434 0.967529 123.725C1.61238 124.369 2.45809 124.692 3.30347 124.692C4.14885 124.692 4.99456 124.369 5.63942 123.725L18.2478 111.116Z" fill="white"/>
<path d="M101.391 22.6718C98.4618 25.6017 96.8483 29.497 96.8483 33.64C96.8483 37.7833 98.4618 41.6785 101.391 44.6081C104.415 47.6318 108.387 49.1436 112.359 49.1436C116.332 49.1436 120.304 47.6318 123.327 44.6081C126.257 41.6785 127.87 37.7833 127.87 33.64C127.87 29.497 126.257 25.6017 123.327 22.6718C117.28 16.6243 107.44 16.6243 101.391 22.6718ZM118.655 39.9362C115.184 43.4086 109.535 43.4082 106.063 39.9362C104.381 38.2544 103.455 36.0189 103.455 33.64C103.455 31.2617 104.382 29.0256 106.063 27.3437C107.799 25.6077 110.079 24.7399 112.359 24.7399C114.639 24.7399 116.92 25.608 118.655 27.3437C120.337 29.0256 121.264 31.2614 121.264 33.64C121.264 36.0189 120.337 38.2544 118.655 39.9362Z" fill="white"/>
<path d="M28.6665 116.862C27.3765 115.573 25.2847 115.573 23.9946 116.862L6.30871 134.549C5.01867 135.839 5.01867 137.931 6.30871 139.221C6.95389 139.866 7.79927 140.189 8.64465 140.189C9.49003 140.189 10.3357 139.866 10.9806 139.221L28.6665 121.535C29.9566 120.244 29.9566 118.153 28.6665 116.862Z" fill="white"/>
<path d="M143.897 4.40317C143.587 3.28591 142.714 2.41344 141.597 2.10324C129.557 -1.23831 116.516 -0.588172 103.883 3.9823C94.0944 7.52404 84.5743 13.4612 77.7636 20.2721L67.4909 30.5449L30.275 36.3581C29.5833 36.4662 28.944 36.7912 28.4488 37.2861L4.64637 61.0886C3.71939 62.0159 3.42802 63.403 3.90406 64.6244C4.38011 65.8457 5.53371 66.6699 6.84324 66.7251L30.3226 67.7125L24.438 73.5971C23.1479 74.8872 23.1479 76.979 24.438 78.2694L27.8727 81.7037L17.6142 97.4283C16.7605 98.7369 16.9399 100.464 18.0449 101.569L44.4308 127.955C45.5358 129.06 47.2632 129.24 48.5721 128.386L64.296 118.127L67.7308 121.561C69.0208 122.851 71.1126 122.851 72.403 121.561L78.2876 115.677L79.275 139.156C79.3302 140.465 80.1544 141.619 81.3758 142.095C81.7656 142.247 82.1719 142.32 82.575 142.32C83.4352 142.32 84.2803 141.984 84.9116 141.353L108.714 117.55C109.209 117.055 109.534 116.416 109.642 115.724L115.456 78.5085L125.728 68.2358C132.539 61.4252 138.476 51.905 142.018 42.1166C146.588 29.4841 147.238 16.4427 143.897 4.40317ZM47.2071 121.387L24.6127 98.7927L32.6473 86.4777L43.7486 97.579L42.443 98.8845C41.1527 100.175 41.1527 102.266 42.443 103.557C43.7331 104.846 45.8249 104.846 47.1152 103.557L48.4208 102.251L59.5221 113.352L47.2071 121.387ZM121.056 63.5642L98.5364 86.0839C97.2464 87.374 97.2464 89.4658 98.5364 90.7561C99.8264 92.0459 101.918 92.0459 103.209 90.7561L107.53 86.4344L103.28 113.641L85.56 131.361L84.6337 109.331L93.8648 100.1C95.1549 98.8099 95.1549 96.7181 93.8648 95.4277C92.5748 94.138 90.483 94.138 89.1926 95.4277L78.9447 105.676C78.9391 105.681 78.9338 105.687 78.9282 105.692L70.0667 114.553L67.1209 111.608C67.0872 111.573 67.0535 111.539 67.0185 111.505L53.0924 97.579L93.0472 57.6245C94.3373 56.3344 94.3376 54.2426 93.0472 52.9522C91.7575 51.6629 89.6657 51.6625 88.3753 52.9522L48.4205 92.9074L34.4937 78.9806C34.4606 78.9463 34.4269 78.9126 34.3923 78.8792L31.4465 75.9331L40.3079 67.0716C40.3135 67.0663 40.3188 67.0611 40.3241 67.0554L50.5721 56.8075C51.8625 55.5174 51.8625 53.4256 50.5721 52.1353C49.2824 50.8455 47.1902 50.8455 45.9002 52.1353L36.6691 61.3664L14.639 60.4397L32.3592 42.7195L59.5654 38.4698L55.2436 42.7912L59.9155 47.4634L71.362 36.0169C71.3868 35.9928 71.4116 35.9683 71.4357 35.9432L82.4352 24.9437C91.6283 15.7509 113.457 2.12999 138.002 7.99744C143.869 32.5429 130.249 54.3718 121.056 63.5642Z" fill="white"/>
<path d="M34.8838 127.752L22.2755 140.36C20.9854 141.65 20.9854 143.742 22.2755 145.033C22.9207 145.677 23.766 146 24.6114 146C25.4568 146 26.3025 145.677 26.9474 145.033L39.5557 132.424C40.8457 131.134 40.8457 129.042 39.5557 127.752C38.266 126.462 36.1742 126.462 34.8838 127.752Z" fill="white"/>
</svg>
